<svg xmlns="http://www.w3.org/2000/svg" fill="currentColor" viewBox="0 0 23.625 23.625">
    <g transform="translate(0 0)">
        <path
            d="M348.549,278.487a.54.54,0,0,1-.54-.539c0-3.6-1.882-4.288-1.962-4.316a.542.542,0,0,1-.339-.681.535.535,0,0,1,.672-.345c.111.035,2.709.911,2.709,5.342A.539.539,0,0,1,348.549,278.487Z"
            transform="translate(-336.736 -272.58)" />
        <path
            d="M343.028,299.692c-2.33,0-3.1-.666-3.658-1.152a1.1,1.1,0,0,0-1.7,0c-.561.486-1.328,1.152-3.659,1.152-3.89,0-7.3-7.681-7.3-12.323,0-4.747,2.651-8.192,6.3-8.192a5.211,5.211,0,0,1,3.028,1.053,3.9,3.9,0,0,0,4.962,0,5.212,5.212,0,0,1,3.03-1.053c3.652,0,6.3,3.445,6.3,8.192C350.331,292.011,346.918,299.692,343.028,299.692Zm-4.509-2.634a2.156,2.156,0,0,1,1.557.667c.48.416,1.025.888,2.952.888,1.368,0,2.907-1.446,4.221-3.967a17.3,17.3,0,0,0,2-7.278c0-4.188-2.148-7.113-5.223-7.113a4.149,4.149,0,0,0-2.449.883,4.951,4.951,0,0,1-6.125,0,4.147,4.147,0,0,0-2.446-.882c-3.076,0-5.224,2.925-5.224,7.113a17.306,17.306,0,0,0,2,7.278c1.314,2.521,2.853,3.967,4.221,3.967,1.928,0,2.472-.472,2.952-.889A2.159,2.159,0,0,1,338.519,297.058Z"
            transform="translate(-326.706 -276.067)" />
    </g>
    <g transform="translate(8.941 10.495)">
        <path
            d="M356.107,299.033a.539.539,0,0,1-.539-.539v-3.11a.539.539,0,1,1,1.079,0v3.11A.539.539,0,0,1,356.107,299.033Z"
            transform="translate(-350.903 -294.844)" />
        <path
            d="M346.212,299.033a.539.539,0,0,1-.539-.539v-3.11a.539.539,0,1,1,1.079,0v3.11A.539.539,0,0,1,346.212,299.033Z"
            transform="translate(-345.673 -294.844)" />
    </g>
</svg>