<svg xmlns="http://www.w3.org/2000/svg" viewBox="0 0 24.409 21.098" fill="currentColor">
    <path
        d="M488.5,286.21H464.187l.005-.541c.05-5.271,3.873-10.944,12.151-10.944a12.468,12.468,0,0,1,9.019,3.337,10.75,10.75,0,0,1,3.132,7.607Zm-23.216-1.072H487.4a9.621,9.621,0,0,0-2.795-6.314,12.8,12.8,0,0,0-16.529,0A9.627,9.627,0,0,0,465.283,285.138Z"
        transform="translate(-464.13 -274.725)" />
    <path
        d="M483.925,313.078h-15.3c-3.1,0-4.3-3.451-4.5-5.285l-.065-.595H477.48v1.072H465.3c.26,1.186,1.082,3.734,3.331,3.734h15.254a3.035,3.035,0,0,0,2.856-2.054,7.474,7.474,0,0,0,.526-1.68h-5.385V307.2h6.589l-.047.58C488.277,309.617,487.14,313.077,483.925,313.078Z"
        transform="translate(-464.066 -291.979)" />
    <path
        d="M479.881,307.552h-.061c-.9-.034-1.764-.824-2.308-2.115-.5-1.183-.884-1.81-1.143-1.862-.05-.012-.248-.009-.714.441a2.363,2.363,0,0,1-3.321.124,2.621,2.621,0,0,1-.439-.44,1.231,1.231,0,0,0-1.152-.555h-6.008a.536.536,0,0,1,0-1.073h6.008a2.281,2.281,0,0,1,1.972.936,1.761,1.761,0,0,0,.257.269,1.291,1.291,0,0,0,1.937-.033,1.981,1.981,0,0,1,1.674-.722c.791.162,1.3,1.038,1.917,2.5.361.857.908,1.444,1.36,1.46.363.01.76-.356,1.111-1.041a11.9,11.9,0,0,0,.607-1.452c.357-.984.694-1.914,1.981-1.914h4.405a.536.536,0,1,1,0,1.073h-4.405c-.495,0-.6.182-.972,1.207a13.005,13.005,0,0,1-.662,1.576C481.241,307.259,480.447,307.552,479.881,307.552Z"
        transform="translate(-464.136 -289.255)" />
    <path d="M503.737,288.156a.4.4,0,1,1-.314-.314A.4.4,0,0,1,503.737,288.156Z"
        transform="translate(-484.724 -281.69)" />
    <path d="M498.61,283.028a.4.4,0,1,1-.315-.314A.4.4,0,0,1,498.61,283.028Z"
        transform="translate(-481.999 -278.966)" />
    <path d="M492.628,284.738a.4.4,0,1,1-.315-.314A.4.4,0,0,1,492.628,284.738Z"
        transform="translate(-478.821 -279.874)" />
</svg>