<svg xmlns="http://www.w3.org/2000/svg" viewBox="0 0 22.583 22.583" fill="currentColor">
    <path
        d="M21.252 13.941a.587.587 0 01-.062 0 .516.516 0 01-.45-.574l.732-6.1-5.66-.61-.7 2.98a.516.516 0 01-1-.234l.8-3.424a.513.513 0 01.557-.4l6.633.714a.516.516 0 01.457.574l-.794 6.621a.516.516 0 01-.513.453z" />
    <path
        d="M13.925 22.583a.516.516 0 01-.444-.254l-5.234-8.883a.515.515 0 01.23-.73 10.087 10.087 0 002.572-1.878A7.3 7.3 0 0012.7 8.516a.517.517 0 01.747-.269l8.884 5.234a.516.516 0 01.252.493 10.688 10.688 0 01-2.861 5.988 9.15 9.15 0 01-5.784 2.622zm-4.516-9.2l4.8 8.139a8.3 8.3 0 004.787-2.295 9.7 9.7 0 002.516-5.038l-8.1-4.772a9.329 9.329 0 01-1.631 2.144 11.577 11.577 0 01-2.372 1.826z" />
    <path
        d="M21.297 7.241a.545.545 0 01-.071 0 .516.516 0 01-.441-.581 5.146 5.146 0 00-3.4-5.43v5a.516.516 0 11-1.031 0V.52a.515.515 0 01.653-.5 6.2 6.2 0 014.8 6.777.515.515 0 01-.51.444z" />
    <path
        d="M6.804 22.583a.516.516 0 01-.513-.461l-.714-6.632a.516.516 0 01.4-.557l3.424-.8a.516.516 0 01.234 1l-2.98.7.61 5.66 6.1-.731a.516.516 0 11.123 1.024l-6.621.794a.564.564 0 01-.063.003z" />
    <path
        d="M6.104 21.874a6.2 6.2 0 01-6.086-4.85.515.515 0 01.5-.653h5.714a.516.516 0 110 1.031h-5a5.147 5.147 0 005.432 3.4.516.516 0 01.139 1.022 5.051 5.051 0 01-.699.05z" />
</svg>