<svg xmlns="http://www.w3.org/2000/svg" viewBox="0 0 24.628 18.602" fill="currentColor">
    <g transform="translate(-638.928 -261.025)">
        <g transform="translate(638.928 270.46)">
            <g transform="translate(0 0)">
                <path
                    d="M622.376,308.454h-15.43a4.331,4.331,0,0,1-4.5-3.376l-.115-.635h24.628l-.083.612A4.2,4.2,0,0,1,622.376,308.454ZM607,307.375h15.368a3.224,3.224,0,0,0,3.249-1.853H603.733a3.294,3.294,0,0,0,3.217,1.854Z"
                    transform="translate(-602.334 -299.287)" />
                <path
                    d="M627.464,299.7a.539.539,0,0,1-.526-.425,3.484,3.484,0,0,0-.658-1.475,2.608,2.608,0,0,0-1.643-.865,3.094,3.094,0,0,0-1.676.232.543.543,0,0,1-.647-.119,4.492,4.492,0,0,0-2.446-1.563,3.373,3.373,0,0,0-2.677.97.54.54,0,0,1-.908-.236c-.437-1.64-1.619-1.642-1.755-1.636h-.044a2.075,2.075,0,0,0-2.252,1.276.546.546,0,0,1-.494.384,3.488,3.488,0,0,0-3.63,2.931.539.539,0,0,1-1.072-.115,4.518,4.518,0,0,1,4.308-3.87,3.265,3.265,0,0,1,3.15-1.685,2.817,2.817,0,0,1,2.552,1.681,4.056,4.056,0,0,1,3.015-.76,5.472,5.472,0,0,1,2.794,1.625,4.219,4.219,0,0,1,1.938-.182,3.689,3.689,0,0,1,2.285,1.207,4.468,4.468,0,0,1,.914,1.971.541.541,0,0,1-.527.654Z"
                    transform="translate(-604.817 -293.505)" />
                <path
                    d="M620.216,301.487a.539.539,0,0,1-.536-.486,2.9,2.9,0,0,0-1.745-2.46,4.765,4.765,0,0,0-1.6-.43.539.539,0,1,1,.05-1.078,4.445,4.445,0,0,1,4.369,3.86.54.54,0,0,1-.483.59Z"
                    transform="translate(-609.463 -295.37)" />
                <path
                    d="M634.428,302.588a.54.54,0,0,1-.49-.765,4.755,4.755,0,0,1,2.836-2.689.539.539,0,0,1,.276,1.042,3.7,3.7,0,0,0-2.132,2.1A.539.539,0,0,1,634.428,302.588Z"
                    transform="translate(-619.014 -296.471)" />
                <path
                    d="M624.144,300.983a.548.548,0,0,1-.166-.026.539.539,0,0,1-.348-.679,5.915,5.915,0,0,1,1.579-2.317.539.539,0,0,1,.709.812h0a4.883,4.883,0,0,0-1.261,1.835A.54.54,0,0,1,624.144,300.983Z"
                    transform="translate(-613.577 -295.79)" />
            </g>
        </g>
        <g transform="translate(648.597 261.025)">
            <path
                d="M632.048,282.07a.539.539,0,0,1-.539-.539,2.625,2.625,0,0,1,.459-1.531,1.71,1.71,0,0,0,0-1.94,2.78,2.78,0,0,1,0-3.061,1.57,1.57,0,0,0,.3-.969.54.54,0,1,1,1.079,0,2.624,2.624,0,0,1-.459,1.53,1.706,1.706,0,0,0,0,1.939,2.781,2.781,0,0,1,0,3.061,1.574,1.574,0,0,0-.3.97A.539.539,0,0,1,632.048,282.07Z"
                transform="translate(-627.425 -273.491)" />
            <path
                d="M623.384,280.65a.54.54,0,0,1-.539-.54,2.029,2.029,0,0,1,.488-1.337,1.009,1.009,0,0,0,0-1.379,2.074,2.074,0,0,1,0-2.674.973.973,0,0,0,.272-.689.54.54,0,1,1,1.079,0,2.028,2.028,0,0,1-.489,1.337,1.007,1.007,0,0,0,0,1.378,2.074,2.074,0,0,1,0,2.675.977.977,0,0,0-.272.69A.54.54,0,0,1,623.384,280.65Z"
                transform="translate(-622.845 -273.491)" />
        </g>
    </g>
</svg>