<svg xmlns="http://www.w3.org/2000/svg" viewBox="0 0 24.409 21.098" fill="currentColor">
    <path
        d="M24.37 11.485H.057l.005-.541C.112 5.673 3.935 0 12.213 0a12.468 12.468 0 019.019 3.337 10.75 10.75 0 013.132 7.607zM1.154 10.413H23.27a9.621 9.621 0 00-2.795-6.314 12.8 12.8 0 00-16.529 0 9.627 9.627 0 00-2.793 6.314z" />
    <path
        d="M19.859 21.099h-15.3c-3.1 0-4.3-3.451-4.5-5.285l-.065-.595h13.42v1.072H1.234c.26 1.186 1.082 3.734 3.331 3.734h15.254a3.035 3.035 0 002.856-2.054 7.474 7.474 0 00.526-1.68h-5.385v-1.07h6.589l-.047.58c-.147 1.837-1.284 5.297-4.499 5.298z" />
    <path
        d="M15.745 18.297h-.061c-.9-.034-1.764-.824-2.308-2.115-.5-1.183-.884-1.81-1.143-1.862-.05-.012-.248-.009-.714.441a2.363 2.363 0 01-3.321.124 2.621 2.621 0 01-.439-.44 1.231 1.231 0 00-1.152-.555H.599a.536.536 0 010-1.073h6.008a2.281 2.281 0 011.972.936 1.761 1.761 0 00.257.269 1.291 1.291 0 001.937-.033 1.981 1.981 0 011.674-.722c.791.162 1.3 1.038 1.917 2.5.361.857.908 1.444 1.36 1.46.363.01.76-.356 1.111-1.041a11.9 11.9 0 00.607-1.452c.357-.984.694-1.914 1.981-1.914h4.405a.536.536 0 110 1.073h-4.405c-.495 0-.6.182-.972 1.207a13.005 13.005 0 01-.662 1.576c-.684 1.328-1.478 1.621-2.044 1.621z" />
    <path d="M19.013 6.466a.4.4 0 11-.314-.314.4.4 0 01.314.314z" />
    <path d="M16.611 4.062a.4.4 0 11-.315-.314.4.4 0 01.315.314z" />
    <path d="M13.807 4.864a.4.4 0 11-.315-.314.4.4 0 01.315.314z" />
</svg>