<svg xmlns="http://www.w3.org/2000/svg" width="123" height="26" fill="currentColor">
    <path
        d="M2.767 14.031H0v-2.864h2.767v-1.3A4.438 4.438 0 017.52 5.144a6.646 6.646 0 013.386.944L9.7 8.497a3.158 3.158 0 00-1.887-.653c-1.074 0-1.921.651-1.921 2.149v1.141h3.679v2.865H5.892v11.3H2.767z" />
    <path
        d="M56.094 5.144v6.9a7.5 7.5 0 00-4.851-1.237 7.424 7.424 0 00.749 14.812 7.224 7.224 0 004.134-1.27v.944h3.125V5.111h-3.157zM51.96 22.789a4.558 4.558 0 114.134-6.478v3.809a4.524 4.524 0 01-4.137 2.668z" />
    <circle cx="2.116" cy="2.116" r="2.116" transform="translate(62.993 5.144)" />
    <path d="M63.547 11.166h3.125v14.161h-3.125V11.166z" />
    <path
        d="M91.153 15.952v9.376h-3.125v-8.5c0-2.018-1.009-3.028-2.442-3.028-1.563 0-2.962 1.2-2.962 3.614v7.943h-3.093v-8.526c0-2.018-1.107-3.028-2.507-3.028-1.53 0-2.93 1.2-2.93 3.614v7.943h-3.125V11.427c0-.163.065-.26.2-.26h2.669a.268.268 0 01.2.13l.033 1.758a4.485 4.485 0 014-2.246 4.22 4.22 0 013.898 2.441 4.863 4.863 0 014.362-2.442c2.478 0 4.822 1.628 4.822 5.144z" />
    <path
        d="M107.17 25.36h-2.671a.268.268 0 01-.2-.13l-.033-1.758a4.873 4.873 0 01-4.2 2.181c-2.572 0-5.274-1.693-5.274-5.567v-8.92h3.093v8.139c0 2.181 1.172 3.255 2.8 3.255 1.79 0 3.548-1.4 3.548-4.167v-7.227h3.125v13.9q.007.294-.188.294z" />
    <path
        d="M116.741 25.653a8.618 8.618 0 01-6.576-2.8l2.311-2.149a5.843 5.843 0 004.558 2.181c1.5 0 2.572-.651 2.572-1.465 0-1.074-1.53-1.335-3.288-1.725-2.311-.521-5.209-1.3-5.209-4.493 0-3.028 2.669-4.395 5.664-4.395a8.946 8.946 0 015.241 1.628l-1.758 2.311a5.621 5.621 0 00-3.451-1.2c-1.367 0-2.507.521-2.507 1.6 0 1.237 1.465 1.563 3.353 1.921 2.377.488 5.144 1.074 5.144 3.972-.064 2.888-2.83 4.614-6.054 4.614z" />
    <path
        d="M17.807 10.808a7.422 7.422 0 107.422 7.422 7.419 7.419 0 00-7.422-7.422zm0 11.98a4.558 4.558 0 114.558-4.558 4.571 4.571 0 01-4.558 4.558z" />
    <path
        d="M34.866 10.808a7.422 7.422 0 107.422 7.422 7.419 7.419 0 00-7.422-7.422zm0 11.98a4.558 4.558 0 114.558-4.558 4.571 4.571 0 01-4.558 4.558z" />
    <path d="M33.303 0h3.125v7.683h-3.125z" />
    <path d="M41.498 3.402l2.706 1.563-2.816 4.877-2.706-1.563z" />
    <path d="M25.525 4.965l2.706-1.563 2.816 4.878-2.706 1.562z" />
</svg>