<?xml version="1.0" standalone="no"?>
<!DOCTYPE svg PUBLIC "-//W3C//DTD SVG 20010904//EN"
 "http://www.w3.org/TR/2001/REC-SVG-20010904/DTD/svg10.dtd">
<svg version="1.0" xmlns="http://www.w3.org/2000/svg"
 width="700.000000pt" height="700.000000pt" viewBox="0 0 700.000000 700.000000"
 preserveAspectRatio="xMidYMid meet">
<metadata>
Created by potrace 1.14, written by Peter Selinger 2001-2017
</metadata>
<g transform="translate(0.000000,700.000000) scale(0.100000,-0.100000)"
fill="#000000" stroke="none">
<path d="M3087 6978 c-9 -5 -12 -256 -12 -1044 l0 -1037 405 1 c223 0 414 1
425 1 20 1 20 8 20 1041 0 686 -3 1040 -10 1041 -47 5 -819 2 -828 -3z"/>
<path d="M1613 6010 c-45 -27 -106 -62 -135 -78 -183 -101 -503 -291 -505
-299 -2 -6 14 -39 35 -74 21 -35 52 -89 69 -119 16 -30 53 -93 80 -140 28 -47
61 -103 73 -125 20 -36 87 -152 283 -490 38 -66 79 -138 92 -160 35 -63 96
-168 111 -192 13 -21 20 -17 374 187 199 115 364 210 367 213 2 3 -65 126
-150 274 -85 147 -164 285 -175 305 -22 39 -59 101 -79 133 -7 11 -22 38 -34
60 -12 22 -68 120 -125 218 -57 98 -104 182 -104 187 0 6 -3 10 -7 10 -5 0
-19 22 -32 48 -12 27 -30 58 -40 70 l-16 21 -82 -49z"/>
<path d="M5170 5833 c-73 -126 -144 -248 -158 -273 -14 -25 -50 -88 -81 -140
-30 -52 -59 -105 -65 -117 -6 -13 -14 -23 -18 -23 -5 0 -8 -4 -8 -9 0 -5 -68
-128 -152 -272 -120 -209 -149 -265 -137 -271 33 -21 539 -313 589 -340 30
-17 72 -42 92 -55 l37 -23 55 93 c52 89 368 636 409 707 16 29 83 145 122 212
120 206 175 310 169 319 -3 6 -21 17 -38 25 -17 8 -40 20 -50 27 -64 40 -126
77 -130 77 -2 0 -37 19 -78 43 -40 24 -93 55 -118 69 -70 40 -242 138 -276
159 l-32 19 -132 -227z"/>
<path d="M3348 4045 c-2 -1 -30 -5 -63 -8 -33 -4 -71 -9 -85 -12 -13 -2 -42
-7 -65 -10 -195 -28 -494 -143 -692 -267 -157 -98 -364 -274 -475 -405 -108
-127 -221 -304 -294 -459 -127 -271 -187 -552 -187 -874 0 -80 11 -235 18
-260 2 -8 6 -33 10 -55 23 -158 83 -346 167 -525 180 -384 495 -714 878 -918
126 -67 367 -159 460 -175 14 -3 43 -10 65 -15 161 -42 468 -54 675 -27 95 13
118 17 230 45 756 188 1340 803 1489 1570 17 90 20 111 28 200 14 176 6 386
-22 535 -28 150 -56 249 -106 379 -72 186 -199 402 -332 563 -50 61 -207 214
-282 275 -286 233 -637 382 -1025 433 -52 7 -386 16 -392 10z m419 -804 c51
-11 122 -32 159 -46 81 -30 228 -104 232 -116 2 -5 8 -9 14 -9 20 0 135 -95
215 -177 128 -131 232 -301 287 -467 46 -143 60 -230 59 -391 0 -139 -3 -167
-38 -325 -9 -40 -62 -173 -95 -240 -116 -229 -343 -450 -567 -551 -115 -52
-126 -56 -183 -72 -193 -53 -386 -64 -560 -32 -14 3 -40 7 -58 10 -68 11 -230
72 -315 118 -273 149 -475 383 -579 672 -14 39 -31 90 -36 115 -6 25 -13 56
-17 70 -12 53 -19 149 -19 250 2 322 126 619 355 851 81 82 138 127 236 187
135 84 321 152 458 168 28 4 52 8 54 10 3 2 72 3 155 1 107 -3 178 -10 243
-26z"/>
</g>
</svg>
